<svg xmlns="http://www.w3.org/2000/svg" width="36" height="36" fill="none"><path fill="#000" d="m24.6 13-.7-1-1-.6-1.5-.3a58.8 58.8 0 0 0-8.4.3l-1 .7-.6 1-.3 1.5a58.8 58.8 0 0 0 .3 8.4l.7 1 1 .6 1.5.3a58.7 58.7 0 0 0 8.4-.3l1-.7.6-1 .3-1.5a58.8 58.8 0 0 0-.3-8.4ZM18 22.3a4.3 4.3 0 1 1 0-8.6 4.3 4.3 0 0 1 0 8.6Zm4.5-7.8a1 1 0 1 1 0-2 1 1 0 0 1 0 2ZM0 0v36h36V0H0Zm26.4 21.5c0 .9-.2 1.5-.4 2-.2.6-.5 1-1 1.5-.4.5-1 .8-1.5 1l-2 .4a59.2 59.2 0 0 1-9-.4c-.6-.2-1-.5-1.5-1-.5-.4-.8-1-1-1.5l-.4-2a59.2 59.2 0 0 1 .4-9c.2-.6.5-1 1-1.5.4-.5 1-.8 1.5-1l2-.4a60 60 0 0 1 9 .4c.6.2 1 .5 1.5 1 .5.4.8 1 1 1.5l.4 2a59.2 59.2 0 0 1 0 7ZM18 15.2a2.8 2.8 0 1 0 0 5.6 2.8 2.8 0 0 0 0-5.6Z"/></svg>