<svg xmlns="http://www.w3.org/2000/svg" width="36" height="36" fill="none"><path fill="#000" fill-rule="evenodd" d="M36 0H0v36h36V0ZM25.7 14.9c-.9-1-2-1.4-3.2-1.4H19v1.7h3.6c.8 0 1.4.3 2 .9.5.5.8 1.2.8 2 0 .7-.3 1.3-.8 2-.6.4-1.2.7-2 .7H19v1.7h3.6A4.5 4.5 0 0 0 27 18c0-1.2-.4-2.3-1.3-3.1ZM21.6 17h-7.2V19h7.2v-1.8Zm-11 1c0-.8.4-1.5.9-2 .6-.6 1.2-.9 2-.9H17v-1.7h-3.6c-1.3 0-2.3.5-3.2 1.4-.9.8-1.3 1.9-1.3 3.1a4.5 4.5 0 0 0 4.5 4.5H17v-1.7h-3.6c-.8 0-1.4-.3-2-.8-.5-.6-.8-1.2-.8-2Z" clip-rule="evenodd"/></svg>