<svg xmlns="http://www.w3.org/2000/svg" width="36" height="36" fill="none"><path fill="#000" d="M0 0v36h36V0H0Zm18 27c-.9 0-1.7-.1-2.5-.4.3-.6.7-1.2.9-2l.6-2.4c.3.6 1.2 1.1 2.2 1.1 2.9 0 4.8-2.6 4.8-6.1 0-2.7-2.2-5.2-5.7-5.2-4.2 0-6.4 3-6.4 5.6 0 1.6.6 3 1.9 3.4.2 0 .4 0 .4-.2l.2-.7-.1-.5c-.4-.5-.6-1-.6-1.8 0-2.2 1.7-4.3 4.4-4.3 2.4 0 3.8 1.5 3.8 3.4 0 2.6-1.1 4.8-2.9 4.8-1 0-1.6-.8-1.4-1.7.3-1.2.8-2.4.8-3.2 0-.8-.4-1.4-1.2-1.4-1 0-1.8 1-1.8 2.3 0 .9.3 1.4.3 1.4l-1.2 5c-.2.6-.2 1.4-.2 2A8.6 8.6 0 0 1 9 18c0-5 4-9 9-9s9 4 9 9-4 9-9 9Z"/></svg>